<svg xmlns="http://www.w3.org/2000/svg" viewBox="0 0 1000 350" width="1000" height="350">
	<style>
		tspan { white-space:pre }
	</style>
	<path id="Rallee " fill="#ffffff" d="M156.15 239.24L180.46 270.88L106.93 271.47L107.51 98.32L257.07 235.14L257.66 270.44L216.94 270.59L156.15 212L156.15 239.24ZM256.34 164.54L226.46 199.69L189.25 165.85L204.49 148.13L202.73 111.65L130.37 110.92L78.95 65.8L227.48 65.8L256.34 101.25L256.34 164.54ZM421.58 270.44L376.61 269.86L307.61 269.86L280.22 243.2L280.22 205.7L309.22 180.36L354.34 180.36L357.12 218.88L329.29 218.44L329.14 230.75L355.37 230.75L353.9 180.36L399.75 212L399.75 246.57L421.58 270.44ZM399.75 146.81L399.75 207.75L384.52 197.05Q365.03 183.87 357.86 178.16Q354.19 175.38 354.19 174.2L354.19 171.71Q354.19 168.05 353.75 161.46L310.39 161.61L269.53 123.08L374.85 123.08L399.75 146.81ZM477.39 64.78L477.39 243.34L435.49 196.62L435.49 93.05L414.25 64.78L477.39 64.78ZM435.49 203.35L494.53 271.32L436.37 270.88L435.49 203.35ZM553.85 64.78L553.85 243.34L511.96 196.62L511.96 93.05L490.72 64.78L553.85 64.78ZM511.96 203.35L570.99 271.32L512.84 270.88L511.96 203.35ZM713.67 191.78L693.3 219.76L642.47 219.76L567.47 123.67L692.13 123.67L713.67 150.91L713.67 191.78ZM639.11 173.62L667.82 173.62L667.82 168.05L639.11 168.05L639.11 173.62ZM714.84 270.44L626.95 271.03L593.26 237.78L591.5 160.73L640.28 223.42L678.66 224.01L714.84 270.44ZM860.15 191.78L839.79 219.76L788.96 219.76L713.96 123.67L838.62 123.67L860.15 150.91L860.15 191.78ZM785.59 173.62L814.3 173.62L814.3 168.05L785.59 168.05L785.59 173.62ZM861.32 270.44L773.43 271.03L739.74 237.78L737.98 160.73L786.76 223.42L825.14 224.01L861.32 270.44Z" />
</svg>